HIERARCHY
ROOT Hips
{
	OFFSET -0.001795 -0.223333 0.028219
	CHANNELS 6 Xposition Yposition Zposition Zrotation Yrotation Xrotation 
	JOINT LeftUpLeg
	{
		OFFSET 0.069520 -0.091406 -0.006815
		CHANNELS 3 Zrotation Yrotation Xrotation
		JOINT LeftLeg
		{
			OFFSET 0.034277 -0.375199 -0.004496
			CHANNELS 3 Zrotation Yrotation Xrotation
			JOINT LeftFoot
			{
				OFFSET -0.013596 -0.397961 -0.043693
				CHANNELS 3 Zrotation Yrotation Xrotation
				JOINT LeftToe
				{
					OFFSET 0.026358 -0.055791 0.119288
					CHANNELS 3 Zrotation Yrotation Xrotation
					End Site
					{
						OFFSET 0.000000 0.000000 0.000000
					}
				}
			}
		}
	}
	JOINT RightUpLeg
	{
		OFFSET -0.067670 -0.090522 -0.004320
		CHANNELS 3 Zrotation Yrotation Xrotation
		JOINT RightLeg
		{
			OFFSET -0.038290 -0.382569 -0.008850
			CHANNELS 3 Zrotation Yrotation Xrotation
			JOINT RightFoot
			{
				OFFSET 0.015774 -0.398415 -0.042312
				CHANNELS 3 Zrotation Yrotation Xrotation
				JOINT RightToe
				{
					OFFSET -0.025372 -0.048144 0.123348
					CHANNELS 3 Zrotation Yrotation Xrotation
					End Site
					{
						OFFSET 0.000000 0.000000 0.000000
					}
				}
			}
		}
	}
	JOINT Spine
	{
		OFFSET -0.002533 0.108963 -0.026696
		CHANNELS 3 Zrotation Yrotation Xrotation
		JOINT Spine1
		{
			OFFSET 0.005487 0.135180 0.001092
			CHANNELS 3 Zrotation Yrotation Xrotation
			JOINT Spine2
			{
				OFFSET 0.001457 0.052922 0.025425
				CHANNELS 3 Zrotation Yrotation Xrotation
				JOINT Neck
				{
					OFFSET -0.002778 0.213870 -0.042857
					CHANNELS 3 Zrotation Yrotation Xrotation
					JOINT Head
					{
						OFFSET 0.005152 0.064970 0.051349
						CHANNELS 3 Zrotation Yrotation Xrotation
						End Site
						{
							OFFSET 0.000000 0.000000 0.000000
						}
					}
				}
				JOINT LeftShoulder
				{
					OFFSET 0.078845 0.121749 -0.034090
					CHANNELS 3 Zrotation Yrotation Xrotation
					JOINT LeftArm
					{
						OFFSET 0.090977 0.030469 -0.008868
						CHANNELS 3 Zrotation Yrotation Xrotation
						JOINT LeftForeArm
						{
							OFFSET 0.259612 -0.012772 -0.027456
							CHANNELS 3 Zrotation Yrotation Xrotation
							JOINT LeftHand
							{
								OFFSET 0.249234 0.008986 -0.001171
								CHANNELS 3 Zrotation Yrotation Xrotation
								End Site
								{
									OFFSET 0.000000 0.000000 0.000000
								}
							}
						}
					}
				}
				JOINT RightShoulder
				{
					OFFSET -0.081759 0.118833 -0.038615
					CHANNELS 3 Zrotation Yrotation Xrotation
					JOINT RightArm
					{
						OFFSET -0.096012 0.032551 -0.009143
						CHANNELS 3 Zrotation Yrotation Xrotation
						JOINT RightForeArm
						{
							OFFSET -0.253742 -0.013329 -0.021401
							CHANNELS 3 Zrotation Yrotation Xrotation
							JOINT RightHand
							{
								OFFSET -0.255298 0.007772 -0.005559
								CHANNELS 3 Zrotation Yrotation Xrotation
								End Site
								{
									OFFSET 0.000000 0.000000 0.000000
								}
							}
						}
					}
				}
			}
		}
	}
}
MOTION
Frames: 16
Frame Time: 0.050000
0.000000 0.917863 0.000000 -1.823790 1.614153 2.776610 4.248298 -0.467302 -7.001178 -6.224950 0.926405 15.228347 3.473894 5.945546 -3.927114 0.000000 0.000000 0.000000 -3.933001 0.688884 -8.937513 5.066418 -0.718296 17.412866 -1.979253 -5.041876 -0.011910 0.000000 0.000000 0.000000 -2.140439 -0.041069 3.310767 4.406622 -0.297134 -26.093741 -1.460873 -1.944959 29.388834 1.980954 0.112607 -24.800285 0.000000 0.000000 0.000000 -18.802299 8.226789 -5.307778 -50.026331 -5.010349 -6.475742 -113.439994 -57.622286 88.858108 0.000000 0.000000 0.000000 11.112172 -3.646898 -2.294612 59.345246 -1.091102 -9.158619 101.582395 60.227262 77.411381 0.000000 0.000000 0.000000 
0.001036 0.919025 -0.000374 -1.989799 1.613521 3.486827 4.659409 -0.448696 -6.815608 -6.729875 1.010619 13.437728 3.359864 5.782007 -3.688308 0.000000 0.000000 0.000000 -3.420236 0.718702 -8.873638 4.370521 -0.521495 15.861991 -1.970756 -5.091893 0.175458 0.000000 0.000000 0.000000 -2.570197 0.016111 1.667144 4.458001 -0.339780 -25.514210 -0.868826 -2.121205 29.633068 2.199040 -0.103128 -24.163111 0.000000 0.000000 0.000000 -19.652179 8.928451 -5.804477 -49.302135 -5.256109 -6.340403 -112.571259 -56.097012 86.079091 0.000000 0.000000 0.000000 10.334164 -3.898412 -2.341660 59.405425 -1.339800 -9.353852 101.895288 59.309933 76.719293 0.000000 0.000000 0.000000 
0.001710 0.918372 -0.000533 -1.497555 1.766671 3.169107 3.908151 -0.460691 -6.572598 -6.419700 0.937528 13.623235 3.337477 5.660099 -3.841840 0.000000 0.000000 0.000000 -4.188059 0.695247 -9.245385 4.717033 -0.629866 17.198766 -2.053784 -5.256261 0.058316 0.000000 0.000000 0.000000 -2.481755 0.022946 1.043680 4.210088 -0.267538 -25.735343 -1.752892 -2.191429 31.238628 2.072737 0.055705 -25.667911 0.000000 0.000000 0.000000 -20.293482 8.772658 -5.767495 -48.804352 -6.628138 -5.947990 -112.439958 -56.133210 86.130564 0.000000 0.000000 0.000000 12.248786 -3.524170 -2.337638 57.580339 0.275365 -8.503396 100.435615 61.096789 77.253002 0.000000 0.000000 0.000000 
0.001989 0.919006 -0.000686 -1.384165 1.649623 3.143206 3.647255 -0.501500 -7.124539 -6.243036 0.919167 14.619186 3.346430 5.858434 -3.391480 0.000000 0.000000 0.000000 -4.154275 0.700797 -9.294870 4.386408 -0.536878 17.293724 -2.005911 -5.195726 0.225876 0.000000 0.000000 0.000000 -2.807160 0.042724 0.340072 4.527135 -0.357708 -25.473550 -2.101937 -2.623548 31.435398 1.774771 0.110257 -25.166423 0.000000 0.000000 0.000000 -21.129203 10.009098 -6.505505 -48.960468 -6.475191 -6.025526 -112.297002 -55.692407 85.740467 0.000000 0.000000 0.000000 10.785786 -3.250519 -2.134320 58.204167 0.952289 -8.286919 104.887969 60.380248 80.836268 0.000000 0.000000 0.000000 
0.001718 0.919051 -0.000703 -1.291478 1.293871 2.818529 3.461451 -0.472796 -6.618697 -6.153902 0.911458 14.433422 3.452251 6.125128 -3.362335 0.000000 0.000000 0.000000 -4.502401 0.669008 -9.074085 4.759556 -0.619226 17.439653 -1.843667 -4.792325 0.242224 0.000000 0.000000 0.000000 -2.594564 0.033414 0.499228 4.322316 -0.339457 -25.132242 -2.321094 -2.067429 31.436616 2.152720 -0.055899 -25.283690 0.000000 0.000000 0.000000 -21.331562 9.058469 -6.040525 -48.986897 -7.055511 -5.819087 -111.166155 -56.657633 85.492290 0.000000 0.000000 0.000000 11.575462 -2.891218 -1.998373 57.178538 2.093658 -7.622190 104.395203 60.798270 80.899025 0.000000 0.000000 0.000000 
0.000523 0.919596 -0.000432 -1.461184 1.325190 2.858195 3.892710 -0.461401 -6.686439 -6.413564 0.971676 14.467027 3.383240 6.053030 -3.130858 0.000000 0.000000 0.000000 -4.287442 0.658156 -8.697766 4.856496 -0.639746 16.708346 -1.808963 -4.743805 0.343430 0.000000 0.000000 0.000000 -2.584450 0.040087 0.139188 4.249013 -0.332712 -24.973771 -2.365762 -2.337774 31.541379 2.012548 -0.020578 -25.145405 0.000000 0.000000 0.000000 -21.766192 9.366428 -6.232889 -49.453593 -7.140416 -5.830994 -108.983186 -56.613506 83.203517 0.000000 0.000000 0.000000 11.137107 -2.449070 -1.787042 57.269502 2.337984 -7.516650 104.637728 61.106125 81.327261 0.000000 0.000000 0.000000 
-0.001606 0.920383 -0.000122 -1.638269 1.076358 2.662138 4.000782 -0.432297 -6.311762 -6.065560 0.897737 14.263298 3.444989 6.269173 -2.940918 0.000000 0.000000 0.000000 -4.029182 0.621588 -7.897486 4.939268 -0.638664 15.626510 -1.656648 -4.384892 0.404225 0.000000 0.000000 0.000000 -2.701825 0.041576 0.096464 4.220942 -0.353816 -24.582590 -2.342517 -2.209210 31.344161 2.708883 -0.456410 -25.059823 0.000000 0.000000 0.000000 -21.921518 8.927950 -5.980393 -49.642818 -6.793482 -5.986724 -107.220908 -56.880252 81.643452 0.000000 0.000000 0.000000 11.746473 -2.142332 -1.707394 57.225152 2.660108 -7.346699 104.185248 61.632338 81.406039 0.000000 0.000000 0.000000 
-0.004319 0.921283 0.000018 -1.919297 0.871554 2.797682 4.282115 -0.419711 -6.274333 -5.741095 0.826484 13.976750 3.500342 6.479321 -2.719044 0.000000 0.000000 0.000000 -3.517685 0.598503 -7.188079 4.858731 -0.597698 14.046026 -1.522315 -4.088546 0.501656 0.000000 0.000000 0.000000 -2.939416 0.048301 0.029222 4.305461 -0.388266 -24.404662 -2.156989 -2.079781 31.208239 3.261185 -0.747766 -25.522331 0.000000 0.000000 0.000000 -22.268405 8.807086 -5.969101 -49.460697 -6.494720 -6.081717 -105.500418 -56.671664 79.508303 0.000000 0.000000 0.000000 12.247264 -2.041694 -1.707884 57.264699 3.050787 -7.154765 103.244919 62.131358 80.993772 0.000000 0.000000 0.000000 
-0.006908 0.921887 -0.000214 -2.159024 0.687365 2.871371 4.531097 -0.408190 -6.243945 -5.452185 0.765050 13.785841 3.561532 6.675063 -2.568625 0.000000 0.000000 0.000000 -3.094111 0.591020 -6.842494 4.842447 -0.580907 13.197942 -1.409441 -3.854155 0.618671 0.000000 0.000000 0.000000 -3.056780 0.048779 0.206642 4.366919 -0.415287 -24.262295 -2.087346 -2.067559 31.023627 3.566763 -0.930798 -25.694684 0.000000 0.000000 0.000000 -22.449519 8.549227 -5.818474 -49.206462 -6.075540 -6.214779 -104.377549 -56.485789 78.091640 0.000000 0.000000 0.000000 12.583966 -1.774743 -1.631838 57.194462 3.342850 -6.995879 103.587022 62.982841 82.223758 0.000000 0.000000 0.000000 
-0.008809 0.922500 -0.000632 -2.411193 0.347569 2.906531 4.749694 -0.384201 -5.978832 -5.207532 0.716459 13.281157 3.671584 6.969919 -2.456376 0.000000 0.000000 0.000000 -2.574256 0.596497 -6.663643 4.566690 -0.504975 12.679343 -1.257944 -3.538661 0.763451 0.000000 0.000000 0.000000 -3.080459 0.048019 0.356572 4.488654 -0.456850 -24.123214 -1.955485 -1.824347 31.061915 3.798484 -0.970767 -26.663485 0.000000 0.000000 0.000000 -22.481202 8.468204 -5.777229 -49.036948 -5.752622 -6.330128 -103.080464 -56.308188 76.517011 0.000000 0.000000 0.000000 12.638435 -1.564003 -1.530537 57.129763 3.862292 -6.754052 104.482104 64.216005 84.595241 0.000000 0.000000 0.000000 
-0.009822 0.923197 -0.000965 -2.466313 0.091739 3.120370 4.719397 -0.379662 -5.876774 -4.993569 0.671430 12.699475 3.735404 7.190669 -2.242191 0.000000 0.000000 0.000000 -2.364838 0.619690 -6.844711 4.367587 -0.452463 12.479421 -1.143020 -3.342127 0.966853 0.000000 0.000000 0.000000 -3.078361 0.047795 0.536782 4.488927 -0.448270 -24.305577 -1.791435 -1.673522 31.256346 3.885879 -0.967965 -27.254678 0.000000 0.000000 0.000000 -22.685014 8.416605 -5.767855 -48.938797 -5.346442 -6.493522 -101.247543 -55.991917 74.291344 0.000000 0.000000 0.000000 12.499572 -1.416789 -1.447191 57.075523 4.249351 -6.587525 104.965520 65.075057 86.094958 0.000000 0.000000 0.000000 
-0.010218 0.924323 -0.001053 -2.472509 -0.036084 3.387615 4.498609 -0.374871 -5.619547 -4.580900 0.577479 11.730139 3.730999 7.289119 -1.918971 0.000000 0.000000 0.000000 -2.140224 0.624805 -6.798784 3.997829 -0.370000 11.821225 -1.042295 -3.233365 1.289266 0.000000 0.000000 0.000000 -3.101114 0.053180 0.407105 4.497162 -0.460934 -24.160482 -1.588659 -1.528229 31.003255 3.664879 -0.775898 -27.673765 0.000000 0.000000 0.000000 -22.523494 8.442940 -5.792518 -49.150762 -5.066641 -6.581906 -100.580595 -55.547036 73.062120 0.000000 0.000000 0.000000 12.149013 -1.349427 -1.379748 57.267431 4.261582 -6.562734 105.370253 65.900356 87.468648 0.000000 0.000000 0.000000 
-0.010429 0.925615 -0.000761 -2.385869 0.279666 3.732562 4.199818 -0.371972 -5.289102 -4.112194 0.465064 10.410839 3.537686 6.970183 -1.565588 0.000000 0.000000 0.000000 -1.932787 0.621674 -6.686711 3.555592 -0.291153 11.017119 -1.094172 -3.518450 1.677711 0.000000 0.000000 0.000000 -3.190970 0.059573 0.301342 4.607521 -0.465636 -24.362926 -1.565785 -1.435399 30.974590 3.653116 -0.717226 -27.614695 0.000000 0.000000 0.000000 -22.267893 8.613407 -5.949973 -49.578556 -5.252385 -6.514399 -100.476698 -54.979996 72.199870 0.000000 0.000000 0.000000 12.045512 -1.599876 -1.444103 57.287514 4.320456 -6.511559 105.249212 66.421293 88.114281 0.000000 0.000000 0.000000 
-0.010821 0.927015 -0.000228 -2.305535 0.997418 4.132787 3.902576 -0.371369 -4.987160 -3.500586 0.332328 8.961808 3.180639 6.308314 -1.180009 0.000000 0.000000 0.000000 -1.838047 0.605472 -6.470186 3.435618 -0.291195 10.006951 -1.253446 -4.095800 2.204747 0.000000 0.000000 0.000000 -3.369058 0.071215 -0.090962 4.572005 -0.451058 -24.259293 -1.427642 -1.576795 30.738357 3.565245 -0.594700 -27.726707 0.000000 0.000000 0.000000 -21.844307 8.648578 -6.015251 -49.904219 -5.294845 -6.471514 -100.794372 -53.544328 70.682285 0.000000 0.000000 0.000000 12.030911 -2.005301 -1.589034 57.243609 3.912352 -6.644167 105.828289 66.573970 89.060711 0.000000 0.000000 0.000000 
-0.011261 0.928116 0.000555 -2.239767 1.544610 4.403767 3.697758 -0.356062 -4.554711 -3.056982 0.253084 7.606386 2.876300 5.770638 -0.821882 0.000000 0.000000 0.000000 -1.601608 0.575311 -6.052369 3.066813 -0.239907 8.905185 -1.382308 -4.528403 2.583626 0.000000 0.000000 0.000000 -3.459236 0.079445 -0.536023 4.688673 -0.464954 -24.309174 -1.548023 -1.543962 30.597697 3.598729 -0.563477 -27.502811 0.000000 0.000000 0.000000 -21.223219 8.802955 -6.123357 -50.238496 -5.408613 -6.407763 -100.935572 -52.683781 69.618374 0.000000 0.000000 0.000000 12.207158 -2.390017 -1.729111 57.208929 3.556903 -6.768907 105.227441 66.777898 88.861967 0.000000 0.000000 0.000000 
-0.011534 0.928818 0.001536 -2.213351 1.883115 4.552974 3.426352 -0.336888 -4.125597 -2.496803 0.167544 6.578817 2.691307 5.453180 -0.594862 0.000000 0.000000 0.000000 -1.436264 0.564422 -5.886112 2.837435 -0.207335 8.478910 -1.467896 -4.810864 2.839887 0.000000 0.000000 0.000000 -3.502392 0.084509 -0.892597 4.682712 -0.454066 -24.389919 -1.349614 -1.456724 30.441415 3.745979 -0.584148 -27.531791 0.000000 0.000000 0.000000 -20.575612 8.756598 -6.077844 -50.803179 -5.710935 -6.299846 -100.558328 -51.965884 68.308433 0.000000 0.000000 0.000000 11.986051 -2.708290 -1.817817 57.625004 3.352933 -6.857694 104.411992 67.182667 88.654566 0.000000 0.000000 0.000000 
